<svg width="197" height="216" viewBox="0 0 197 216" fill="none" xmlns="http://www.w3.org/2000/svg">
<path d="M197 56.9249C197 25.487 168.171 0 132.616 0C117.93 0 104.395 4.34899 93.5628 11.6703C90.1775 13.9543 86.2039 15.2058 82.124 15.2058H41.5125C18.5849 15.2058 0 33.7907 0 56.7184V209.941C0 215.072 6.27006 217.562 9.7868 213.827L41.3624 180.336H123.618C146.545 180.336 165.13 161.751 165.13 138.824V122.498C165.13 113.249 169.292 104.501 176.438 98.6251C189.084 88.2314 196.994 73.3947 196.994 56.9249H197Z" fill="white"/>
<path d="M151.251 111.259V135.52C151.251 152.797 137.24 166.807 119.963 166.807H37.038L12.4521 190.123V59.3028C12.4521 42.0258 26.4628 28.0151 43.7399 28.0151H78.7195" stroke="#216DE6" stroke-width="6.25754" stroke-miterlimit="10" stroke-linecap="round"/>
<path d="M112.373 65.5603C120.912 65.5603 127.835 58.6375 127.835 50.0979C127.835 41.5582 120.912 34.6355 112.373 34.6355C103.833 34.6355 96.9102 41.5582 96.9102 50.0979C96.9102 58.6375 103.833 65.5603 112.373 65.5603Z" fill="#216DE6"/>
<path d="M127.179 26.6634C131.403 23.0402 136.89 20.8501 142.898 20.8501C152.891 20.8501 161.47 26.9262 165.137 35.5804" stroke="#216DE6" stroke-width="6.25754" stroke-miterlimit="10"/>
<path d="M116.453 49.3908C118.181 49.3908 119.582 47.99 119.582 46.2621C119.582 44.5341 118.181 43.1333 116.453 43.1333C114.725 43.1333 113.324 44.5341 113.324 46.2621C113.324 47.99 114.725 49.3908 116.453 49.3908Z" fill="white"/>
<path d="M161.664 51.2492C163.392 51.2492 164.793 49.8484 164.793 48.1205C164.793 46.3925 163.392 44.9917 161.664 44.9917C159.936 44.9917 158.535 46.3925 158.535 48.1205C158.535 49.8484 159.936 51.2492 161.664 51.2492Z" fill="#216DE6"/>
<path d="M13.2914 86.0038C13.2914 86.0038 54.829 48.7214 84.2958 48.0268L81.5299 51.1368L81.4799 50.073C81.0168 40.8118 85.1468 31.5945 92.1865 25.5747C104.971 14.3737 125.314 15.8818 136.465 28.6722L132.629 27.1766C144.468 25.9314 156.464 28.1278 167.352 32.7584C172.127 34.6231 175.806 38.1586 178.828 42.0633C187.476 53.0829 186.851 67.3626 177.852 78.0129C170.143 87.2678 159.768 93.3189 150.995 101.266C140.019 110.884 130.639 124.231 132.116 139.324C132.479 142.879 133.449 146.339 135.001 149.537C136.546 152.741 138.693 155.65 141.214 158.216L136.703 162.552C129.363 154.937 125.326 144.149 126.246 133.574C127.135 123.261 132.135 113.462 138.755 105.665C146.414 96.5791 156.683 89.7208 165.487 82.2806C173.847 75.3347 181.087 66.5491 178.559 55.0603C177.014 48.7026 172.214 42.2636 166.163 39.5728C155.751 35.9372 144.431 35.0674 133.536 36.1875L131.221 36.4253C127.767 32.0826 123.155 28.716 117.692 27.4645C102.931 23.7788 88.5884 34.9986 87.8375 50.0855L87.7812 51.143L88.0002 53.6273L85.0154 54.2468C51.3999 60.7296 29.5861 88.2002 20.3812 119.657C17.4777 129.487 15.1687 139.825 14.8871 150.025L13.2852 86.0038H13.2914Z" fill="#216DE6"/>
<path d="M98.4247 167.32C94.9893 158.785 93.5501 149.167 95.0894 140.125C96.028 134.512 98.5561 128.962 102.135 124.694C100.702 128.092 99.8264 131.621 99.6762 135.125C99.1693 145.087 105.608 156.476 112.01 163.916C114.131 164.392 113.687 164.204 114.726 165.506C118.599 170.362 98.7376 168.109 98.4184 167.32H98.4247Z" fill="#216DE6"/>
<path d="M66.6808 169.392C62.1065 159.505 60.1417 147.947 62.701 137.278C63.8461 132.685 66.0676 128.255 68.9773 124.694C67.7884 127.497 66.7246 131.008 66.3992 135.1C65.1978 150.118 74.8156 161.213 77.4187 164.035C78.1697 164.73 78.9268 165.424 79.6777 166.113L66.6808 169.385V169.392Z" fill="#216DE6"/>
<path d="M125.489 89.1574C128.687 77.9815 139.35 73.2821 149.168 69.0958C158.986 65.0284 169.042 61.6931 179.116 58.4079C184.298 56.9248 186.726 64.2962 181.632 66.1672C171.213 68.226 160.725 70.1533 150.494 72.9504C140.507 75.7788 129.97 78.795 125.489 89.1637V89.1574Z" fill="#216DE6"/>
<path d="M94.2382 58.7145C94.4823 58.6332 115.958 49.7537 124.838 36.5127C124.838 36.5127 117.654 26.3004 100.371 34.6355C83.0873 42.9705 94.232 58.7145 94.232 58.7145H94.2382Z" fill="white"/>
<path d="M104.92 78.8327C104.92 80.7788 103.343 82.3557 101.397 82.3557C99.4509 82.3557 97.874 80.7788 97.874 78.8327C97.874 76.8866 101.397 68.0635 101.397 68.0635C101.397 68.0635 104.92 76.8866 104.92 78.8327Z" fill="#216DE6"/>
</svg>
