<svg width="64" height="68" viewBox="0 0 64 68" fill="none" xmlns="http://www.w3.org/2000/svg">
<g filter="url(#filter0_d_1106_442)">
<path d="M53.855 18.6723C53.855 11.6738 47.4374 6 39.5222 6C36.2528 6 33.2397 6.96815 30.8284 8.59798C30.0748 9.10643 29.1902 9.38503 28.282 9.38503H19.2413C14.1373 9.38503 10 13.5223 10 18.6263V52.7358C10 53.878 11.3958 54.4324 12.1787 53.6008L19.2078 46.1454H37.5191C42.6231 46.1454 46.7603 42.0081 46.7603 36.9041V33.2697C46.7603 31.2108 47.6867 29.2634 49.2775 27.9554C52.0928 25.6416 53.8536 22.3387 53.8536 18.6723H53.855Z" fill="white"/>
<path d="M43.6705 30.7679V36.1686C43.6705 40.0147 40.5515 43.1337 36.7054 43.1337H18.2451L12.772 48.3241V19.2016C12.772 15.3555 15.8909 12.2365 19.7371 12.2365H27.524" stroke="#216DE6" stroke-width="1.39302" stroke-miterlimit="10" stroke-linecap="round"/>
<path d="M35.0159 20.5947C36.9169 20.5947 38.458 19.0536 38.458 17.1525C38.458 15.2515 36.9169 13.7104 35.0159 13.7104C33.1148 13.7104 31.5737 15.2515 31.5737 17.1525C31.5737 19.0536 33.1148 20.5947 35.0159 20.5947Z" fill="#216DE6"/>
<path d="M38.3115 11.9357C39.2518 11.1291 40.4735 10.6415 41.8108 10.6415C44.0354 10.6415 45.9453 11.9942 46.7616 13.9207" stroke="#216DE6" stroke-width="1.39302" stroke-miterlimit="10"/>
<path d="M35.924 16.9951C36.3087 16.9951 36.6206 16.6833 36.6206 16.2986C36.6206 15.9139 36.3087 15.6021 35.924 15.6021C35.5394 15.6021 35.2275 15.9139 35.2275 16.2986C35.2275 16.6833 35.5394 16.9951 35.924 16.9951Z" fill="white"/>
<path d="M45.9885 17.4088C46.3732 17.4088 46.685 17.097 46.685 16.7123C46.685 16.3276 46.3732 16.0158 45.9885 16.0158C45.6038 16.0158 45.292 16.3276 45.292 16.7123C45.292 17.097 45.6038 17.4088 45.9885 17.4088Z" fill="#216DE6"/>
<path d="M12.9589 25.1456C12.9589 25.1456 22.2058 16.846 28.7655 16.6914L28.1498 17.3837L28.1386 17.1469C28.0355 15.0853 28.9549 13.0334 30.5221 11.6933C33.368 9.19977 37.8967 9.53549 40.3791 12.3828L39.5252 12.0499C42.1607 11.7727 44.8312 12.2616 47.255 13.2925C48.3179 13.7076 49.137 14.4946 49.8098 15.3639C51.735 17.817 51.5957 20.9958 49.5925 23.3668C47.8763 25.427 45.5667 26.7741 43.6137 28.5432C41.1703 30.6843 39.0822 33.6556 39.4109 37.0156C39.4917 37.8068 39.7076 38.5771 40.0531 39.289C40.3972 40.0022 40.875 40.6499 41.4364 41.2211L40.432 42.1864C38.798 40.4911 37.8995 38.0896 38.1043 35.7354C38.3021 33.4397 39.4151 31.2582 40.8889 29.5225C42.594 27.4998 44.8799 25.9731 46.8399 24.3168C48.701 22.7705 50.3127 20.8148 49.7499 18.2572C49.4058 16.8419 48.3374 15.4085 46.9903 14.8095C44.6724 14.0001 42.1524 13.8065 39.7271 14.0558L39.2117 14.1088C38.4428 13.142 37.4161 12.3926 36.2 12.114C32.9139 11.2935 29.7211 13.7912 29.5539 17.1497L29.5414 17.3851L29.5902 17.9382L28.9257 18.0761C21.4424 19.5192 16.5863 25.6346 14.5372 32.6373C13.8908 34.8257 13.3768 37.127 13.3141 39.3976L12.9575 25.1456H12.9589Z" fill="#216DE6"/>
<path d="M29.7891 23.1898C31.3451 24.9785 33.918 25.4437 36.1774 25.2111C37.5593 25.1024 38.8367 24.587 40.0876 23.9866C43.4504 22.3122 46.6905 20.2965 50.1355 18.7224C50.4183 18.5901 50.9852 18.7656 50.9852 18.7656L50.8362 20.3926C50.8362 20.3926 47.3717 21.7731 45.6555 22.5421C43.9366 23.3041 42.2315 24.1232 40.4456 24.8183C39.3298 25.2431 38.1486 25.6374 36.9352 25.7404C34.3707 25.941 31.405 25.3546 29.7891 23.1884V23.1898Z" fill="#216DE6"/>
<path d="M31.9106 43.2479C31.1458 41.3478 30.8254 39.2068 31.1681 37.1938C31.3771 35.9443 31.9398 34.7087 32.7367 33.7587C32.4176 34.5151 32.2226 35.3007 32.1892 36.0808C32.0764 38.2985 33.5098 40.8338 34.9348 42.4901C35.4071 42.596 35.3082 42.5542 35.5394 42.8439C36.4017 43.9249 31.9802 43.4234 31.9092 43.2479H31.9106Z" fill="#216DE6"/>
<path d="M24.8439 43.709C23.8256 41.508 23.3882 38.9351 23.9579 36.56C24.2128 35.5376 24.7074 34.5513 25.3551 33.7587C25.0905 34.3827 24.8536 35.1642 24.7812 36.0753C24.5137 39.4185 26.6548 41.8883 27.2343 42.5166C27.4015 42.6712 27.57 42.8258 27.7372 42.9791L24.8439 43.7076V43.709Z" fill="#216DE6"/>
</g>
<defs>
<filter id="filter0_d_1106_442" x="0" y="0" width="63.855" height="68" filterUnits="userSpaceOnUse" color-interpolation-filters="sRGB">
<feFlood flood-opacity="0" result="BackgroundImageFix"/>
<feColorMatrix in="SourceAlpha" type="matrix" values="0 0 0 0 0 0 0 0 0 0 0 0 0 0 0 0 0 0 127 0" result="hardAlpha"/>
<feOffset dy="4"/>
<feGaussianBlur stdDeviation="5"/>
<feComposite in2="hardAlpha" operator="out"/>
<feColorMatrix type="matrix" values="0 0 0 0 0 0 0 0 0 0 0 0 0 0 0 0 0 0 0.25 0"/>
<feBlend mode="normal" in2="BackgroundImageFix" result="effect1_dropShadow_1106_442"/>
<feBlend mode="normal" in="SourceGraphic" in2="effect1_dropShadow_1106_442" result="shape"/>
</filter>
</defs>
</svg>
