<svg width="22" height="24" viewBox="0 0 22 24" fill="none" xmlns="http://www.w3.org/2000/svg">
<path d="M21.9275 6.33614C21.9275 2.83688 18.7187 0 14.7611 0C13.1264 0 11.6199 0.484074 10.4142 1.29899C10.0374 1.55321 9.59511 1.69252 9.14098 1.69252H4.62064C2.06863 1.69252 0 3.76115 0 6.31316V23.3679C0 23.939 0.697902 24.2162 1.08934 23.8004L4.60392 20.0727H13.7595C16.3115 20.0727 18.3802 18.0041 18.3802 15.4521V13.6349C18.3802 12.6054 18.8434 11.6317 19.6388 10.9777C21.0464 9.82078 21.9268 8.16935 21.9268 6.33614H21.9275Z" fill="white"/>
<path d="M16.835 12.3838V15.0842C16.835 17.0072 15.2755 18.5667 13.3525 18.5667H4.12233L1.38574 21.1619V6.60071C1.38574 4.67765 2.94523 3.11816 4.86829 3.11816H8.76177" stroke="#216DE6" stroke-width="0.696509" stroke-miterlimit="10" stroke-linecap="round"/>
<path d="M12.5082 7.29713C13.4587 7.29713 14.2293 6.52658 14.2293 5.57605C14.2293 4.62553 13.4587 3.85498 12.5082 3.85498C11.5577 3.85498 10.7871 4.62553 10.7871 5.57605C10.7871 6.52658 11.5577 7.29713 12.5082 7.29713Z" fill="#216DE6"/>
<path d="M14.1562 2.96786C14.6264 2.56458 15.2372 2.3208 15.9059 2.3208C17.0182 2.3208 17.9731 2.99711 18.3813 3.96038" stroke="#216DE6" stroke-width="0.696509" stroke-miterlimit="10"/>
<path d="M12.9625 5.49778C13.1548 5.49778 13.3108 5.34186 13.3108 5.14952C13.3108 4.95719 13.1548 4.80127 12.9625 4.80127C12.7702 4.80127 12.6143 4.95719 12.6143 5.14952C12.6143 5.34186 12.7702 5.49778 12.9625 5.49778Z" fill="white"/>
<path d="M17.9947 5.70432C18.1871 5.70432 18.343 5.5484 18.343 5.35607C18.343 5.16373 18.1871 5.00781 17.9947 5.00781C17.8024 5.00781 17.6465 5.16373 17.6465 5.35607C17.6465 5.5484 17.8024 5.70432 17.9947 5.70432Z" fill="#216DE6"/>
<path d="M1.47921 9.57272C1.47921 9.57272 6.10264 5.42292 9.3825 5.3456L9.07464 5.69177L9.06907 5.57336C9.01753 4.54253 9.47723 3.51657 10.2608 2.84653C11.6838 1.59978 13.9481 1.76764 15.1893 3.1913L14.7623 3.02484C16.0801 2.88623 17.4153 3.1307 18.6273 3.64612C19.1587 3.85368 19.5682 4.24721 19.9047 4.68183C20.8672 5.90838 20.7976 7.49782 19.796 8.68327C18.9379 9.71341 17.7831 10.3869 16.8066 11.2715C15.5849 12.342 14.5408 13.8277 14.7052 15.5077C14.7456 15.9033 14.8536 16.2885 15.0263 16.6444C15.1983 17.001 15.4373 17.3249 15.7179 17.6104L15.2158 18.0931C14.3988 17.2455 13.9495 16.0447 14.0519 14.8676C14.1508 13.7197 14.7073 12.629 15.4442 11.7611C16.2967 10.7498 17.4397 9.98644 18.4197 9.15829C19.3502 8.38517 20.1561 7.40727 19.8747 6.12848C19.7027 5.42083 19.1685 4.70412 18.4949 4.40462C17.3359 3.99995 16.076 3.90313 14.8633 4.02781L14.6056 4.05428C14.2211 3.5709 13.7078 3.19618 13.0998 3.05687C11.4567 2.64663 9.8603 3.89547 9.77672 5.57475L9.77046 5.69246L9.79483 5.96898L9.4626 6.03793C5.72095 6.75952 3.29292 9.81719 2.26836 13.3185C1.94518 14.4128 1.68816 15.5634 1.65682 16.6987L1.47852 9.57272H1.47921Z" fill="#216DE6"/>
<path d="M9.89453 8.59482C10.6725 9.48914 11.959 9.72177 13.0887 9.60546C13.7797 9.55113 14.4184 9.29342 15.0438 8.99323C16.7252 8.15602 18.3453 7.14817 20.0677 6.36112C20.2091 6.29495 20.4926 6.38271 20.4926 6.38271L20.4181 7.19623C20.4181 7.19623 18.6859 7.88647 17.8278 8.27095C16.9683 8.65194 16.1157 9.06148 15.2228 9.40904C14.6649 9.62148 14.0743 9.81859 13.4676 9.87013C12.1853 9.97043 10.7025 9.6772 9.89453 8.59413V8.59482Z" fill="#216DE6"/>
<path d="M10.9553 18.624C10.5729 17.674 10.4127 16.6034 10.5841 15.597C10.6885 14.9722 10.9699 14.3544 11.3683 13.8794C11.2088 14.2576 11.1113 14.6504 11.0946 15.0405C11.0382 16.1493 11.7549 17.417 12.4674 18.2451C12.7035 18.298 12.6541 18.2772 12.7697 18.422C13.2008 18.9625 10.9901 18.7118 10.9546 18.624H10.9553Z" fill="#216DE6"/>
<path d="M7.4217 18.8546C6.91255 17.7541 6.69385 16.4676 6.97872 15.2801C7.10618 14.7688 7.35344 14.2757 7.67732 13.8794C7.54498 14.1914 7.42657 14.5822 7.39036 15.0377C7.25663 16.7093 8.32716 17.9442 8.61691 18.2583C8.70049 18.3357 8.78477 18.413 8.86835 18.4896L7.4217 18.8539V18.8546Z" fill="#216DE6"/>
</svg>
