<svg width="20" height="20" viewBox="0 0 20 20" fill="none" xmlns="http://www.w3.org/2000/svg">
<path d="M8.74992 14.1667C11.7415 14.1667 14.1666 11.7415 14.1666 8.74999C14.1666 5.75845 11.7415 3.33333 8.74992 3.33333C5.75838 3.33333 3.33325 5.75845 3.33325 8.74999C3.33325 11.7415 5.75838 14.1667 8.74992 14.1667Z" stroke="#464C53" stroke-miterlimit="10"/>
<path d="M16.3131 17.0202C16.5084 17.2155 16.825 17.2155 17.0202 17.0202C17.2155 16.825 17.2155 16.5084 17.0202 16.3131L16.6667 16.6667L16.3131 17.0202ZM12.5 12.5L12.1464 12.8536L16.3131 17.0202L16.6667 16.6667L17.0202 16.3131L12.8536 12.1464L12.5 12.5Z" fill="#464C53"/>
</svg>
