<svg width="183" height="180" viewBox="0 0 183 180" fill="none" xmlns="http://www.w3.org/2000/svg">
<path d="M182.729 52.8012C182.729 23.6407 155.989 0 123.009 0C109.387 0 96.8322 4.03395 86.785 10.8249C83.6449 12.9435 79.9592 14.1043 76.1749 14.1043H38.5053C17.2386 14.1043 0 31.3429 0 52.6096V194.732C0 199.492 5.81585 201.802 9.07783 198.337L38.366 167.272H114.663C135.93 167.272 153.168 150.034 153.168 128.767V113.624C153.168 105.045 157.028 96.9308 163.656 91.4806C175.387 81.8398 182.723 68.0779 182.723 52.8012H182.729Z" fill="white"/>
<path d="M140.294 103.199V125.702C140.294 141.728 127.298 154.724 111.273 154.724H34.3552L11.5503 176.35V55.0068C11.5503 38.9813 24.546 25.9856 40.5715 25.9856H73.0172" stroke="#D3483E" stroke-width="5.80424" stroke-miterlimit="10" stroke-linecap="round"/>
<path d="M104.232 60.811C112.153 60.811 118.575 54.3898 118.575 46.4687C118.575 38.5477 112.153 32.1265 104.232 32.1265C96.3114 32.1265 89.8901 38.5477 89.8901 46.4687C89.8901 54.3898 96.3114 60.811 104.232 60.811Z" fill="#D3483E"/>
<path d="M117.965 24.7319C121.883 21.3712 126.974 19.3398 132.546 19.3398C141.815 19.3398 149.773 24.9757 153.174 33.0029" stroke="#D3483E" stroke-width="5.80424" stroke-miterlimit="10"/>
<path d="M108.017 45.8129C109.62 45.8129 110.919 44.5136 110.919 42.9108C110.919 41.308 109.62 40.0086 108.017 40.0086C106.414 40.0086 105.115 41.308 105.115 42.9108C105.115 44.5136 106.414 45.8129 108.017 45.8129Z" fill="white"/>
<path d="M149.952 47.5367C151.555 47.5367 152.855 46.2374 152.855 44.6346C152.855 43.0318 151.555 41.7325 149.952 41.7325C148.35 41.7325 147.05 43.0318 147.05 44.6346C147.05 46.2374 148.35 47.5367 149.952 47.5367Z" fill="#D3483E"/>
<path d="M12.3281 79.7735C12.3281 79.7735 50.8566 45.1918 78.1888 44.5475L75.6233 47.4323L75.5769 46.4455C75.1474 37.8553 78.9782 29.3056 85.5079 23.7219C97.366 13.3323 116.236 14.7312 126.579 26.595L123.021 25.2078C134.002 24.0528 145.129 26.0901 155.229 30.3852C159.657 32.1149 163.07 35.3943 165.873 39.0161C173.895 49.2374 173.314 62.4826 164.968 72.3615C157.817 80.9459 148.194 86.5586 140.056 93.93C129.876 102.851 121.175 115.232 122.545 129.231C122.881 132.528 123.781 135.738 125.221 138.704C126.654 141.676 128.645 144.375 130.984 146.754L126.799 150.777C119.991 143.713 116.247 133.706 117.1 123.897C117.925 114.332 122.562 105.242 128.703 98.0104C135.808 89.5826 145.332 83.2212 153.499 76.32C161.253 69.8773 167.969 61.7281 165.624 51.0715C164.19 45.1744 159.738 39.2018 154.126 36.706C144.467 33.3338 133.968 32.527 123.862 33.5659L121.715 33.7865C118.511 29.7583 114.233 26.6357 109.166 25.4748C95.4738 22.0561 82.1705 32.4631 81.474 46.4571L81.4218 47.4381L81.6249 49.7423L78.8563 50.317C47.6759 56.3302 27.4423 81.8108 18.9043 110.989C16.2111 120.107 14.0693 129.696 13.8082 139.157L12.3223 79.7735H12.3281Z" fill="#D3483E"/>
<path d="M82.4551 71.6243C88.9384 79.077 99.6588 81.0156 109.073 80.0463C114.831 79.5936 120.154 77.446 125.366 74.9444C139.377 67.9677 152.878 59.5689 167.232 53.0101C168.41 52.4587 170.772 53.1901 170.772 53.1901L170.151 59.9694C170.151 59.9694 155.716 65.7214 148.565 68.9254C141.403 72.1003 134.299 75.5132 126.858 78.4095C122.208 80.1798 117.286 81.8224 112.231 82.2519C101.545 83.0877 89.188 80.6441 82.4551 71.6185V71.6243Z" fill="#D3483E"/>
<path d="M91.2948 155.2C88.1082 147.283 86.7733 138.361 88.2011 129.974C89.0718 124.768 91.4167 119.62 94.7367 115.661C93.4075 118.813 92.5949 122.086 92.4556 125.337C91.9855 134.577 97.958 145.141 103.896 152.042C105.863 152.483 105.451 152.309 106.415 153.516C110.008 158.02 91.585 155.931 91.289 155.2H91.2948Z" fill="#D3483E"/>
<path d="M61.8499 157.121C57.607 147.95 55.7845 137.23 58.1584 127.333C59.2206 123.073 61.2811 118.964 63.9801 115.661C62.8773 118.261 61.8906 121.518 61.5887 125.314C60.4743 139.244 69.3954 149.535 71.81 152.152C72.5065 152.797 73.2088 153.441 73.9053 154.079L61.8499 157.115V157.121Z" fill="#D3483E"/>
</svg>
