<svg width="140" height="150" viewBox="0 0 140 150" fill="none" xmlns="http://www.w3.org/2000/svg">
<g filter="url(#filter0_d_540_1442)">
<path d="M124.637 42.6807C124.637 25.1844 108.593 11 88.8056 11C80.632 11 73.0993 13.4204 67.071 17.4949C65.187 18.7661 62.9755 19.4626 60.7049 19.4626H38.1032C25.3432 19.4626 15 29.8057 15 42.5658V127.839C15 130.695 18.4895 132.081 20.4467 130.002L38.0196 111.363H83.7977C96.5577 111.363 106.901 101.02 106.901 88.2603V79.1743C106.901 74.0271 109.217 69.1585 113.194 65.8884C120.232 60.1039 124.634 51.8468 124.634 42.6807H124.637Z" fill="white"/>
<path d="M99.177 72.9196V86.4215C99.177 96.0368 91.3796 103.834 81.7643 103.834H35.6136L21.9307 116.81V44.0041C21.9307 34.3888 29.7281 26.5913 39.3434 26.5913H58.8108" stroke="#216DE6" stroke-width="3.48254" stroke-miterlimit="10" stroke-linecap="round"/>
<path d="M77.5399 47.4866C82.2926 47.4866 86.1453 43.6339 86.1453 38.8812C86.1453 34.1286 82.2926 30.2759 77.5399 30.2759C72.7873 30.2759 68.9346 34.1286 68.9346 38.8812C68.9346 43.6339 72.7873 47.4866 77.5399 47.4866Z" fill="#216DE6"/>
<path d="M85.7793 25.8391C88.13 23.8227 91.1842 22.6039 94.5274 22.6039C100.089 22.6039 104.864 25.9854 106.904 30.8018" stroke="#216DE6" stroke-width="3.48254" stroke-miterlimit="10"/>
<path d="M79.8106 38.4877C80.7723 38.4877 81.5519 37.7081 81.5519 36.7465C81.5519 35.7848 80.7723 35.0052 79.8106 35.0052C78.8489 35.0052 78.0693 35.7848 78.0693 36.7465C78.0693 37.7081 78.8489 38.4877 79.8106 38.4877Z" fill="white"/>
<path d="M104.972 39.522C105.933 39.522 106.713 38.7424 106.713 37.7808C106.713 36.8191 105.933 36.0395 104.972 36.0395C104.01 36.0395 103.23 36.8191 103.23 37.7808C103.23 38.7424 104.01 39.522 104.972 39.522Z" fill="#216DE6"/>
<path d="M22.397 58.8641C22.397 58.8641 45.5142 38.1151 61.9135 37.7285L60.3742 39.4594L60.3463 38.8673C60.0886 33.7132 62.3871 28.5834 66.305 25.2332C73.4198 18.9994 84.7416 19.8387 90.9474 26.957L88.8126 26.1247C95.4016 25.4317 102.078 26.654 108.137 29.2311C110.794 30.2689 112.842 32.2366 114.524 34.4097C119.337 40.5424 118.989 48.4896 113.981 54.4169C109.69 59.5676 103.916 62.9352 99.0339 67.358C92.9255 72.7107 87.7052 80.139 88.5271 88.5389C88.7291 90.5169 89.2689 92.4428 90.1325 94.2224C90.9927 96.0054 92.1872 97.6248 93.5907 99.0527L91.0798 101.466C86.9948 97.2278 84.7485 91.2239 85.2605 85.3384C85.755 79.5992 88.5375 74.1455 92.2221 69.8063C96.4847 64.7496 102.2 60.9327 107.099 56.792C111.752 52.9264 115.781 48.0369 114.375 41.6429C113.514 38.1046 110.843 34.5211 107.476 33.0236C101.681 31.0003 95.3807 30.5162 89.3176 31.1396L88.0291 31.2719C86.1067 28.855 83.5401 26.9814 80.4998 26.2849C72.2845 24.2337 64.3025 30.4779 63.8846 38.8743L63.8533 39.4628L63.9751 40.8454L62.314 41.1902C43.6057 44.7981 31.4656 60.0865 26.3428 77.5932C24.7269 83.0643 23.4418 88.8175 23.2851 94.494L22.3936 58.8641H22.397Z" fill="#216DE6"/>
<path d="M64.4727 53.9746C68.3627 58.4462 74.7949 59.6094 80.4436 59.0278C83.8983 58.7561 87.0918 57.4676 90.2191 55.9666C98.626 51.7806 106.726 46.7414 115.339 42.8061C116.046 42.4752 117.463 42.914 117.463 42.914L117.09 46.9817C117.09 46.9817 108.429 50.4329 104.139 52.3552C99.8414 54.2602 95.5787 56.3079 91.1141 58.0457C88.3246 59.1079 85.3714 60.0934 82.3381 60.3511C75.9267 60.8526 68.5124 59.3865 64.4727 53.9711V53.9746Z" fill="#216DE6"/>
<path d="M69.7765 104.12C67.8646 99.3696 67.0636 94.0169 67.9203 88.9846C68.4427 85.8608 69.8496 82.7718 71.8416 80.3967C71.0441 82.2877 70.5566 84.2518 70.473 86.2021C70.1909 91.7463 73.7744 98.0845 77.3371 102.225C78.5177 102.49 78.2704 102.385 78.8485 103.11C81.0042 105.812 69.9506 104.559 69.773 104.12H69.7765Z" fill="#216DE6"/>
<path d="M52.1104 105.272C49.5647 99.7701 48.4712 93.3378 49.8955 87.4001C50.5329 84.8439 51.7692 82.3782 53.3885 80.3967C52.7269 81.9568 52.1348 83.9106 51.9537 86.1881C51.2851 94.5462 56.6378 100.721 58.0865 102.291C58.5044 102.678 58.9258 103.065 59.3437 103.448L52.1104 105.269V105.272Z" fill="#216DE6"/>
</g>
<defs>
<filter id="filter0_d_540_1442" x="0" y="0" width="139.638" height="150" filterUnits="userSpaceOnUse" color-interpolation-filters="sRGB">
<feFlood flood-opacity="0" result="BackgroundImageFix"/>
<feColorMatrix in="SourceAlpha" type="matrix" values="0 0 0 0 0 0 0 0 0 0 0 0 0 0 0 0 0 0 127 0" result="hardAlpha"/>
<feOffset dy="4"/>
<feGaussianBlur stdDeviation="7.5"/>
<feComposite in2="hardAlpha" operator="out"/>
<feColorMatrix type="matrix" values="0 0 0 0 0 0 0 0 0 0 0 0 0 0 0 0 0 0 0.25 0"/>
<feBlend mode="normal" in2="BackgroundImageFix" result="effect1_dropShadow_540_1442"/>
<feBlend mode="normal" in="SourceGraphic" in2="effect1_dropShadow_540_1442" result="shape"/>
</filter>
</defs>
</svg>
